  0
SECTION
  2
HEADER
  9
$ACADVER
  1
AC1009
  9
$FILLMODE
 70
 0
  9
$SPLFRAME
 70
 1
  9
$EXTMIN
 10
0
 20
0
 30
0.0
  9
$EXTMAX
 10
1058.33
 20
1058.33
 30
0.0
  0
ENDSEC
  0
SECTION
  2
TABLES
  0
TABLE
  2
LAYER
 70
1
  0
LAYER
  2
0
 70
     0
 62
     7
  6
CONTINUOUS
  0
ENDTAB
  0
ENDSEC
  0
SECTION
  2
ENTITIES
  0
LINE
  8
0
 62
     0
 10
0.0950846
 20
135.371
 30
0.0
 11
273.458
 21
135.371
 31
0.0
  0
LINE
  8
0
 62
     0
 10
273.458
 20
135.371
 30
0.0
 11
273.458
 21
0.122645
 31
0.0
  0
LINE
  8
0
 62
     0
 10
273.458
 20
0.122645
 30
0.0
 11
0.0950846
 21
0.122645
 31
0.0
  0
LINE
  8
0
 62
     0
 10
0.0950846
 20
0.122645
 30
0.0
 11
0.0950846
 21
135.371
 31
0.0
  0
LINE
  8
0
 62
     0
 10
25.0004
 20
36.6476
 30
0.0
 11
38.9999
 21
36.6476
 31
0.0
  0
LINE
  8
0
 62
     0
 10
38.9999
 20
36.6476
 30
0.0
 11
38.9999
 21
22.6467
 31
0.0
  0
LINE
  8
0
 62
     0
 10
38.9999
 20
22.6467
 30
0.0
 11
25.0004
 21
22.6467
 31
0.0
  0
LINE
  8
0
 62
     0
 10
25.0004
 20
22.6467
 30
0.0
 11
25.0004
 21
36.6476
 31
0.0
  0
LINE
  8
0
 62
     0
 10
48.8128
 20
36.6476
 30
0.0
 11
62.8124
 21
36.6476
 31
0.0
  0
LINE
  8
0
 62
     0
 10
62.8124
 20
36.6476
 30
0.0
 11
62.8124
 21
22.6467
 31
0.0
  0
LINE
  8
0
 62
     0
 10
62.8124
 20
22.6467
 30
0.0
 11
48.8128
 21
22.6467
 31
0.0
  0
LINE
  8
0
 62
     0
 10
48.8128
 20
22.6467
 30
0.0
 11
48.8128
 21
36.6476
 31
0.0
  0
LINE
  8
0
 62
     0
 10
101.2
 20
36.6476
 30
0.0
 11
115.2
 21
36.6476
 31
0.0
  0
LINE
  8
0
 62
     0
 10
115.2
 20
36.6476
 30
0.0
 11
115.2
 21
22.6467
 31
0.0
  0
LINE
  8
0
 62
     0
 10
115.2
 20
22.6467
 30
0.0
 11
101.2
 21
22.6467
 31
0.0
  0
LINE
  8
0
 62
     0
 10
101.2
 20
22.6467
 30
0.0
 11
101.2
 21
36.6476
 31
0.0
  0
LINE
  8
0
 62
     0
 10
153.588
 20
36.6476
 30
0.0
 11
167.587
 21
36.6476
 31
0.0
  0
LINE
  8
0
 62
     0
 10
167.587
 20
36.6476
 30
0.0
 11
167.587
 21
22.6467
 31
0.0
  0
LINE
  8
0
 62
     0
 10
167.587
 20
22.6467
 30
0.0
 11
153.588
 21
22.6467
 31
0.0
  0
LINE
  8
0
 62
     0
 10
153.588
 20
22.6467
 30
0.0
 11
153.588
 21
36.6476
 31
0.0
  0
LINE
  8
0
 62
     0
 10
177.4
 20
36.6476
 30
0.0
 11
191.4
 21
36.6476
 31
0.0
  0
LINE
  8
0
 62
     0
 10
191.4
 20
36.6476
 30
0.0
 11
191.4
 21
22.6467
 31
0.0
  0
LINE
  8
0
 62
     0
 10
191.4
 20
22.6467
 30
0.0
 11
177.4
 21
22.6467
 31
0.0
  0
LINE
  8
0
 62
     0
 10
177.4
 20
22.6467
 30
0.0
 11
177.4
 21
36.6476
 31
0.0
  0
LINE
  8
0
 62
     0
 10
198.832
 20
36.6476
 30
0.0
 11
212.831
 21
36.6476
 31
0.0
  0
LINE
  8
0
 62
     0
 10
212.831
 20
36.6476
 30
0.0
 11
212.831
 21
22.6467
 31
0.0
  0
LINE
  8
0
 62
     0
 10
212.831
 20
22.6467
 30
0.0
 11
198.832
 21
22.6467
 31
0.0
  0
LINE
  8
0
 62
     0
 10
198.832
 20
22.6467
 30
0.0
 11
198.832
 21
36.6476
 31
0.0
  0
LINE
  8
0
 62
     0
 10
217.882
 20
36.6476
 30
0.0
 11
231.881
 21
36.6476
 31
0.0
  0
LINE
  8
0
 62
     0
 10
231.881
 20
36.6476
 30
0.0
 11
231.881
 21
22.6467
 31
0.0
  0
LINE
  8
0
 62
     0
 10
231.881
 20
22.6467
 30
0.0
 11
217.882
 21
22.6467
 31
0.0
  0
LINE
  8
0
 62
     0
 10
217.882
 20
22.6467
 30
0.0
 11
217.882
 21
36.6476
 31
0.0
  0
LINE
  8
0
 62
     0
 10
236.932
 20
36.6476
 30
0.0
 11
250.931
 21
36.6476
 31
0.0
  0
LINE
  8
0
 62
     0
 10
250.931
 20
36.6476
 30
0.0
 11
250.931
 21
22.6467
 31
0.0
  0
LINE
  8
0
 62
     0
 10
250.931
 20
22.6467
 30
0.0
 11
236.932
 21
22.6467
 31
0.0
  0
LINE
  8
0
 62
     0
 10
236.932
 20
22.6467
 30
0.0
 11
236.932
 21
36.6476
 31
0.0
  0
LINE
  8
0
 62
     0
 10
25.0004
 20
55.6976
 30
0.0
 11
38.9999
 21
55.6976
 31
0.0
  0
LINE
  8
0
 62
     0
 10
38.9999
 20
55.6976
 30
0.0
 11
38.9999
 21
41.6966
 31
0.0
  0
LINE
  8
0
 62
     0
 10
38.9999
 20
41.6966
 30
0.0
 11
25.0004
 21
41.6966
 31
0.0
  0
LINE
  8
0
 62
     0
 10
25.0004
 20
41.6966
 30
0.0
 11
25.0004
 21
55.6976
 31
0.0
  0
LINE
  8
0
 62
     0
 10
46.4316
 20
55.6976
 30
0.0
 11
60.4312
 21
55.6976
 31
0.0
  0
LINE
  8
0
 62
     0
 10
60.4312
 20
55.6976
 30
0.0
 11
60.4312
 21
41.6966
 31
0.0
  0
LINE
  8
0
 62
     0
 10
60.4312
 20
41.6966
 30
0.0
 11
46.4316
 21
41.6966
 31
0.0
  0
LINE
  8
0
 62
     0
 10
46.4316
 20
41.6966
 30
0.0
 11
46.4316
 21
55.6976
 31
0.0
  0
LINE
  8
0
 62
     0
 10
65.4816
 20
55.6976
 30
0.0
 11
79.4812
 21
55.6976
 31
0.0
  0
LINE
  8
0
 62
     0
 10
79.4812
 20
55.6976
 30
0.0
 11
79.4812
 21
41.6966
 31
0.0
  0
LINE
  8
0
 62
     0
 10
79.4812
 20
41.6966
 30
0.0
 11
65.4816
 21
41.6966
 31
0.0
  0
LINE
  8
0
 62
     0
 10
65.4816
 20
41.6966
 30
0.0
 11
65.4816
 21
55.6976
 31
0.0
  0
LINE
  8
0
 62
     0
 10
84.5316
 20
55.6976
 30
0.0
 11
98.5312
 21
55.6976
 31
0.0
  0
LINE
  8
0
 62
     0
 10
98.5312
 20
55.6976
 30
0.0
 11
98.5312
 21
41.6966
 31
0.0
  0
LINE
  8
0
 62
     0
 10
98.5312
 20
41.6966
 30
0.0
 11
84.5316
 21
41.6966
 31
0.0
  0
LINE
  8
0
 62
     0
 10
84.5316
 20
41.6966
 30
0.0
 11
84.5316
 21
55.6976
 31
0.0
  0
LINE
  8
0
 62
     0
 10
103.582
 20
55.6976
 30
0.0
 11
117.581
 21
55.6976
 31
0.0
  0
LINE
  8
0
 62
     0
 10
117.581
 20
55.6976
 30
0.0
 11
117.581
 21
41.6966
 31
0.0
  0
LINE
  8
0
 62
     0
 10
117.581
 20
41.6966
 30
0.0
 11
103.582
 21
41.6966
 31
0.0
  0
LINE
  8
0
 62
     0
 10
103.582
 20
41.6966
 30
0.0
 11
103.582
 21
55.6976
 31
0.0
  0
LINE
  8
0
 62
     0
 10
122.632
 20
55.6976
 30
0.0
 11
136.631
 21
55.6976
 31
0.0
  0
LINE
  8
0
 62
     0
 10
136.631
 20
55.6976
 30
0.0
 11
136.631
 21
41.6966
 31
0.0
  0
LINE
  8
0
 62
     0
 10
136.631
 20
41.6966
 30
0.0
 11
122.632
 21
41.6966
 31
0.0
  0
LINE
  8
0
 62
     0
 10
122.632
 20
41.6966
 30
0.0
 11
122.632
 21
55.6976
 31
0.0
  0
LINE
  8
0
 62
     0
 10
141.682
 20
55.6976
 30
0.0
 11
155.681
 21
55.6976
 31
0.0
  0
LINE
  8
0
 62
     0
 10
155.681
 20
55.6976
 30
0.0
 11
155.681
 21
41.6966
 31
0.0
  0
LINE
  8
0
 62
     0
 10
155.681
 20
41.6966
 30
0.0
 11
141.682
 21
41.6966
 31
0.0
  0
LINE
  8
0
 62
     0
 10
141.682
 20
41.6966
 30
0.0
 11
141.682
 21
55.6976
 31
0.0
  0
LINE
  8
0
 62
     0
 10
160.732
 20
55.6976
 30
0.0
 11
174.731
 21
55.6976
 31
0.0
  0
LINE
  8
0
 62
     0
 10
174.731
 20
55.6976
 30
0.0
 11
174.731
 21
41.6966
 31
0.0
  0
LINE
  8
0
 62
     0
 10
174.731
 20
41.6966
 30
0.0
 11
160.732
 21
41.6966
 31
0.0
  0
LINE
  8
0
 62
     0
 10
160.732
 20
41.6966
 30
0.0
 11
160.732
 21
55.6976
 31
0.0
  0
LINE
  8
0
 62
     0
 10
179.782
 20
55.6976
 30
0.0
 11
193.781
 21
55.6976
 31
0.0
  0
LINE
  8
0
 62
     0
 10
193.781
 20
55.6976
 30
0.0
 11
193.781
 21
41.6966
 31
0.0
  0
LINE
  8
0
 62
     0
 10
193.781
 20
41.6966
 30
0.0
 11
179.782
 21
41.6966
 31
0.0
  0
LINE
  8
0
 62
     0
 10
179.782
 20
41.6966
 30
0.0
 11
179.782
 21
55.6976
 31
0.0
  0
LINE
  8
0
 62
     0
 10
198.832
 20
55.6976
 30
0.0
 11
212.831
 21
55.6976
 31
0.0
  0
LINE
  8
0
 62
     0
 10
212.831
 20
55.6976
 30
0.0
 11
212.831
 21
41.6966
 31
0.0
  0
LINE
  8
0
 62
     0
 10
212.831
 20
41.6966
 30
0.0
 11
198.832
 21
41.6966
 31
0.0
  0
LINE
  8
0
 62
     0
 10
198.832
 20
41.6966
 30
0.0
 11
198.832
 21
55.6976
 31
0.0
  0
LINE
  8
0
 62
     0
 10
217.882
 20
55.6976
 30
0.0
 11
231.881
 21
55.6976
 31
0.0
  0
LINE
  8
0
 62
     0
 10
231.881
 20
55.6976
 30
0.0
 11
231.881
 21
41.6966
 31
0.0
  0
LINE
  8
0
 62
     0
 10
231.881
 20
41.6966
 30
0.0
 11
217.882
 21
41.6966
 31
0.0
  0
LINE
  8
0
 62
     0
 10
217.882
 20
41.6966
 30
0.0
 11
217.882
 21
55.6976
 31
0.0
  0
LINE
  8
0
 62
     0
 10
236.932
 20
55.6976
 30
0.0
 11
250.931
 21
55.6976
 31
0.0
  0
LINE
  8
0
 62
     0
 10
250.931
 20
55.6976
 30
0.0
 11
250.931
 21
41.6966
 31
0.0
  0
LINE
  8
0
 62
     0
 10
250.931
 20
41.6966
 30
0.0
 11
236.932
 21
41.6966
 31
0.0
  0
LINE
  8
0
 62
     0
 10
236.932
 20
41.6966
 30
0.0
 11
236.932
 21
55.6976
 31
0.0
  0
LINE
  8
0
 62
     0
 10
29.7629
 20
74.7476
 30
0.0
 11
43.7624
 21
74.7476
 31
0.0
  0
LINE
  8
0
 62
     0
 10
43.7624
 20
74.7476
 30
0.0
 11
43.7624
 21
60.7466
 31
0.0
  0
LINE
  8
0
 62
     0
 10
43.7624
 20
60.7466
 30
0.0
 11
29.7629
 21
60.7466
 31
0.0
  0
LINE
  8
0
 62
     0
 10
29.7629
 20
60.7466
 30
0.0
 11
29.7629
 21
74.7476
 31
0.0
  0
LINE
  8
0
 62
     0
 10
55.9566
 20
74.7476
 30
0.0
 11
69.9562
 21
74.7476
 31
0.0
  0
LINE
  8
0
 62
     0
 10
69.9562
 20
74.7476
 30
0.0
 11
69.9562
 21
60.7466
 31
0.0
  0
LINE
  8
0
 62
     0
 10
69.9562
 20
60.7466
 30
0.0
 11
55.9566
 21
60.7466
 31
0.0
  0
LINE
  8
0
 62
     0
 10
55.9566
 20
60.7466
 30
0.0
 11
55.9566
 21
74.7476
 31
0.0
  0
LINE
  8
0
 62
     0
 10
75.0066
 20
74.7476
 30
0.0
 11
89.0062
 21
74.7476
 31
0.0
  0
LINE
  8
0
 62
     0
 10
89.0062
 20
74.7476
 30
0.0
 11
89.0062
 21
60.7466
 31
0.0
  0
LINE
  8
0
 62
     0
 10
89.0062
 20
60.7466
 30
0.0
 11
75.0066
 21
60.7466
 31
0.0
  0
LINE
  8
0
 62
     0
 10
75.0066
 20
60.7466
 30
0.0
 11
75.0066
 21
74.7476
 31
0.0
  0
LINE
  8
0
 62
     0
 10
94.0566
 20
74.7476
 30
0.0
 11
108.056
 21
74.7476
 31
0.0
  0
LINE
  8
0
 62
     0
 10
108.056
 20
74.7476
 30
0.0
 11
108.056
 21
60.7466
 31
0.0
  0
LINE
  8
0
 62
     0
 10
108.056
 20
60.7466
 30
0.0
 11
94.0566
 21
60.7466
 31
0.0
  0
LINE
  8
0
 62
     0
 10
94.0566
 20
60.7466
 30
0.0
 11
94.0566
 21
74.7476
 31
0.0
  0
LINE
  8
0
 62
     0
 10
113.107
 20
74.7476
 30
0.0
 11
127.106
 21
74.7476
 31
0.0
  0
LINE
  8
0
 62
     0
 10
127.106
 20
74.7476
 30
0.0
 11
127.106
 21
60.7466
 31
0.0
  0
LINE
  8
0
 62
     0
 10
127.106
 20
60.7466
 30
0.0
 11
113.107
 21
60.7466
 31
0.0
  0
LINE
  8
0
 62
     0
 10
113.107
 20
60.7466
 30
0.0
 11
113.107
 21
74.7476
 31
0.0
  0
LINE
  8
0
 62
     0
 10
132.157
 20
74.7476
 30
0.0
 11
146.156
 21
74.7476
 31
0.0
  0
LINE
  8
0
 62
     0
 10
146.156
 20
74.7476
 30
0.0
 11
146.156
 21
60.7466
 31
0.0
  0
LINE
  8
0
 62
     0
 10
146.156
 20
60.7466
 30
0.0
 11
132.157
 21
60.7466
 31
0.0
  0
LINE
  8
0
 62
     0
 10
132.157
 20
60.7466
 30
0.0
 11
132.157
 21
74.7476
 31
0.0
  0
LINE
  8
0
 62
     0
 10
151.207
 20
74.7476
 30
0.0
 11
165.206
 21
74.7476
 31
0.0
  0
LINE
  8
0
 62
     0
 10
165.206
 20
74.7476
 30
0.0
 11
165.206
 21
60.7466
 31
0.0
  0
LINE
  8
0
 62
     0
 10
165.206
 20
60.7466
 30
0.0
 11
151.207
 21
60.7466
 31
0.0
  0
LINE
  8
0
 62
     0
 10
151.207
 20
60.7466
 30
0.0
 11
151.207
 21
74.7476
 31
0.0
  0
LINE
  8
0
 62
     0
 10
170.257
 20
74.7476
 30
0.0
 11
184.256
 21
74.7476
 31
0.0
  0
LINE
  8
0
 62
     0
 10
184.256
 20
74.7476
 30
0.0
 11
184.256
 21
60.7466
 31
0.0
  0
LINE
  8
0
 62
     0
 10
184.256
 20
60.7466
 30
0.0
 11
170.257
 21
60.7466
 31
0.0
  0
LINE
  8
0
 62
     0
 10
170.257
 20
60.7466
 30
0.0
 11
170.257
 21
74.7476
 31
0.0
  0
LINE
  8
0
 62
     0
 10
189.307
 20
74.7476
 30
0.0
 11
203.306
 21
74.7476
 31
0.0
  0
LINE
  8
0
 62
     0
 10
203.306
 20
74.7476
 30
0.0
 11
203.306
 21
60.7466
 31
0.0
  0
LINE
  8
0
 62
     0
 10
203.306
 20
60.7466
 30
0.0
 11
189.307
 21
60.7466
 31
0.0
  0
LINE
  8
0
 62
     0
 10
189.307
 20
60.7466
 30
0.0
 11
189.307
 21
74.7476
 31
0.0
  0
LINE
  8
0
 62
     0
 10
208.357
 20
74.7476
 30
0.0
 11
222.356
 21
74.7476
 31
0.0
  0
LINE
  8
0
 62
     0
 10
222.356
 20
74.7476
 30
0.0
 11
222.356
 21
60.7466
 31
0.0
  0
LINE
  8
0
 62
     0
 10
222.356
 20
60.7466
 30
0.0
 11
208.357
 21
60.7466
 31
0.0
  0
LINE
  8
0
 62
     0
 10
208.357
 20
60.7466
 30
0.0
 11
208.357
 21
74.7476
 31
0.0
  0
LINE
  8
0
 62
     0
 10
232.169
 20
74.7476
 30
0.0
 11
246.17
 21
74.7476
 31
0.0
  0
LINE
  8
0
 62
     0
 10
246.17
 20
74.7476
 30
0.0
 11
246.17
 21
60.7466
 31
0.0
  0
LINE
  8
0
 62
     0
 10
246.17
 20
60.7466
 30
0.0
 11
232.169
 21
60.7466
 31
0.0
  0
LINE
  8
0
 62
     0
 10
232.169
 20
60.7466
 30
0.0
 11
232.169
 21
74.7476
 31
0.0
  0
LINE
  8
0
 62
     0
 10
25.0004
 20
93.7976
 30
0.0
 11
38.9999
 21
93.7976
 31
0.0
  0
LINE
  8
0
 62
     0
 10
38.9999
 20
93.7976
 30
0.0
 11
38.9999
 21
79.7966
 31
0.0
  0
LINE
  8
0
 62
     0
 10
38.9999
 20
79.7966
 30
0.0
 11
25.0004
 21
79.7966
 31
0.0
  0
LINE
  8
0
 62
     0
 10
25.0004
 20
79.7966
 30
0.0
 11
25.0004
 21
93.7976
 31
0.0
  0
LINE
  8
0
 62
     0
 10
46.4316
 20
93.7976
 30
0.0
 11
60.4312
 21
93.7976
 31
0.0
  0
LINE
  8
0
 62
     0
 10
60.4312
 20
93.7976
 30
0.0
 11
60.4312
 21
79.7966
 31
0.0
  0
LINE
  8
0
 62
     0
 10
60.4312
 20
79.7966
 30
0.0
 11
46.4316
 21
79.7966
 31
0.0
  0
LINE
  8
0
 62
     0
 10
46.4316
 20
79.7966
 30
0.0
 11
46.4316
 21
93.7976
 31
0.0
  0
LINE
  8
0
 62
     0
 10
65.4816
 20
93.7976
 30
0.0
 11
79.4812
 21
93.7976
 31
0.0
  0
LINE
  8
0
 62
     0
 10
79.4812
 20
93.7976
 30
0.0
 11
79.4812
 21
79.7966
 31
0.0
  0
LINE
  8
0
 62
     0
 10
79.4812
 20
79.7966
 30
0.0
 11
65.4816
 21
79.7966
 31
0.0
  0
LINE
  8
0
 62
     0
 10
65.4816
 20
79.7966
 30
0.0
 11
65.4816
 21
93.7976
 31
0.0
  0
LINE
  8
0
 62
     0
 10
84.5316
 20
93.7976
 30
0.0
 11
98.5312
 21
93.7976
 31
0.0
  0
LINE
  8
0
 62
     0
 10
98.5312
 20
93.7976
 30
0.0
 11
98.5312
 21
79.7966
 31
0.0
  0
LINE
  8
0
 62
     0
 10
98.5312
 20
79.7966
 30
0.0
 11
84.5316
 21
79.7966
 31
0.0
  0
LINE
  8
0
 62
     0
 10
84.5316
 20
79.7966
 30
0.0
 11
84.5316
 21
93.7976
 31
0.0
  0
LINE
  8
0
 62
     0
 10
103.582
 20
93.7976
 30
0.0
 11
117.581
 21
93.7976
 31
0.0
  0
LINE
  8
0
 62
     0
 10
117.581
 20
93.7976
 30
0.0
 11
117.581
 21
79.7966
 31
0.0
  0
LINE
  8
0
 62
     0
 10
117.581
 20
79.7966
 30
0.0
 11
103.582
 21
79.7966
 31
0.0
  0
LINE
  8
0
 62
     0
 10
103.582
 20
79.7966
 30
0.0
 11
103.582
 21
93.7976
 31
0.0
  0
LINE
  8
0
 62
     0
 10
122.632
 20
93.7976
 30
0.0
 11
136.631
 21
93.7976
 31
0.0
  0
LINE
  8
0
 62
     0
 10
136.631
 20
93.7976
 30
0.0
 11
136.631
 21
79.7966
 31
0.0
  0
LINE
  8
0
 62
     0
 10
136.631
 20
79.7966
 30
0.0
 11
122.632
 21
79.7966
 31
0.0
  0
LINE
  8
0
 62
     0
 10
122.632
 20
79.7966
 30
0.0
 11
122.632
 21
93.7976
 31
0.0
  0
LINE
  8
0
 62
     0
 10
141.682
 20
93.7976
 30
0.0
 11
155.681
 21
93.7976
 31
0.0
  0
LINE
  8
0
 62
     0
 10
155.681
 20
93.7976
 30
0.0
 11
155.681
 21
79.7966
 31
0.0
  0
LINE
  8
0
 62
     0
 10
155.681
 20
79.7966
 30
0.0
 11
141.682
 21
79.7966
 31
0.0
  0
LINE
  8
0
 62
     0
 10
141.682
 20
79.7966
 30
0.0
 11
141.682
 21
93.7976
 31
0.0
  0
LINE
  8
0
 62
     0
 10
160.732
 20
93.7976
 30
0.0
 11
174.731
 21
93.7976
 31
0.0
  0
LINE
  8
0
 62
     0
 10
174.731
 20
93.7976
 30
0.0
 11
174.731
 21
79.7966
 31
0.0
  0
LINE
  8
0
 62
     0
 10
174.731
 20
79.7966
 30
0.0
 11
160.732
 21
79.7966
 31
0.0
  0
LINE
  8
0
 62
     0
 10
160.732
 20
79.7966
 30
0.0
 11
160.732
 21
93.7976
 31
0.0
  0
LINE
  8
0
 62
     0
 10
179.782
 20
93.7976
 30
0.0
 11
193.781
 21
93.7976
 31
0.0
  0
LINE
  8
0
 62
     0
 10
193.781
 20
93.7976
 30
0.0
 11
193.781
 21
79.7966
 31
0.0
  0
LINE
  8
0
 62
     0
 10
193.781
 20
79.7966
 30
0.0
 11
179.782
 21
79.7966
 31
0.0
  0
LINE
  8
0
 62
     0
 10
179.782
 20
79.7966
 30
0.0
 11
179.782
 21
93.7976
 31
0.0
  0
LINE
  8
0
 62
     0
 10
198.832
 20
93.7976
 30
0.0
 11
212.831
 21
93.7976
 31
0.0
  0
LINE
  8
0
 62
     0
 10
212.831
 20
93.7976
 30
0.0
 11
212.831
 21
79.7966
 31
0.0
  0
LINE
  8
0
 62
     0
 10
212.831
 20
79.7966
 30
0.0
 11
198.832
 21
79.7966
 31
0.0
  0
LINE
  8
0
 62
     0
 10
198.832
 20
79.7966
 30
0.0
 11
198.832
 21
93.7976
 31
0.0
  0
LINE
  8
0
 62
     0
 10
217.882
 20
93.7976
 30
0.0
 11
231.881
 21
93.7976
 31
0.0
  0
LINE
  8
0
 62
     0
 10
231.881
 20
93.7976
 30
0.0
 11
231.881
 21
79.7966
 31
0.0
  0
LINE
  8
0
 62
     0
 10
231.881
 20
79.7966
 30
0.0
 11
217.882
 21
79.7966
 31
0.0
  0
LINE
  8
0
 62
     0
 10
217.882
 20
79.7966
 30
0.0
 11
217.882
 21
93.7976
 31
0.0
  0
LINE
  8
0
 62
     0
 10
236.932
 20
93.7976
 30
0.0
 11
250.931
 21
93.7976
 31
0.0
  0
LINE
  8
0
 62
     0
 10
250.931
 20
93.7976
 30
0.0
 11
250.931
 21
79.7966
 31
0.0
  0
LINE
  8
0
 62
     0
 10
250.931
 20
79.7966
 30
0.0
 11
236.932
 21
79.7966
 31
0.0
  0
LINE
  8
0
 62
     0
 10
236.932
 20
79.7966
 30
0.0
 11
236.932
 21
93.7976
 31
0.0
  0
LINE
  8
0
 62
     0
 10
22.6191
 20
112.848
 30
0.0
 11
36.6201
 21
112.848
 31
0.0
  0
LINE
  8
0
 62
     0
 10
36.6201
 20
112.848
 30
0.0
 11
36.6201
 21
98.8466
 31
0.0
  0
LINE
  8
0
 62
     0
 10
36.6201
 20
98.8466
 30
0.0
 11
22.6191
 21
98.8466
 31
0.0
  0
LINE
  8
0
 62
     0
 10
22.6191
 20
98.8466
 30
0.0
 11
22.6191
 21
112.848
 31
0.0
  0
LINE
  8
0
 62
     0
 10
41.6691
 20
112.848
 30
0.0
 11
55.6701
 21
112.848
 31
0.0
  0
LINE
  8
0
 62
     0
 10
55.6701
 20
112.848
 30
0.0
 11
55.6701
 21
98.8466
 31
0.0
  0
LINE
  8
0
 62
     0
 10
55.6701
 20
98.8466
 30
0.0
 11
41.6691
 21
98.8466
 31
0.0
  0
LINE
  8
0
 62
     0
 10
41.6691
 20
98.8466
 30
0.0
 11
41.6691
 21
112.848
 31
0.0
  0
LINE
  8
0
 62
     0
 10
60.7191
 20
112.848
 30
0.0
 11
74.7201
 21
112.848
 31
0.0
  0
LINE
  8
0
 62
     0
 10
74.7201
 20
112.848
 30
0.0
 11
74.7201
 21
98.8466
 31
0.0
  0
LINE
  8
0
 62
     0
 10
74.7201
 20
98.8466
 30
0.0
 11
60.7191
 21
98.8466
 31
0.0
  0
LINE
  8
0
 62
     0
 10
60.7191
 20
98.8466
 30
0.0
 11
60.7191
 21
112.848
 31
0.0
  0
LINE
  8
0
 62
     0
 10
79.7691
 20
112.848
 30
0.0
 11
93.7701
 21
112.848
 31
0.0
  0
LINE
  8
0
 62
     0
 10
93.7701
 20
112.848
 30
0.0
 11
93.7701
 21
98.8466
 31
0.0
  0
LINE
  8
0
 62
     0
 10
93.7701
 20
98.8466
 30
0.0
 11
79.7691
 21
98.8466
 31
0.0
  0
LINE
  8
0
 62
     0
 10
79.7691
 20
98.8466
 30
0.0
 11
79.7691
 21
112.848
 31
0.0
  0
LINE
  8
0
 62
     0
 10
98.8191
 20
112.848
 30
0.0
 11
112.82
 21
112.848
 31
0.0
  0
LINE
  8
0
 62
     0
 10
112.82
 20
112.848
 30
0.0
 11
112.82
 21
98.8466
 31
0.0
  0
LINE
  8
0
 62
     0
 10
112.82
 20
98.8466
 30
0.0
 11
98.8191
 21
98.8466
 31
0.0
  0
LINE
  8
0
 62
     0
 10
98.8191
 20
98.8466
 30
0.0
 11
98.8191
 21
112.848
 31
0.0
  0
LINE
  8
0
 62
     0
 10
117.869
 20
112.848
 30
0.0
 11
131.87
 21
112.848
 31
0.0
  0
LINE
  8
0
 62
     0
 10
131.87
 20
112.848
 30
0.0
 11
131.87
 21
98.8466
 31
0.0
  0
LINE
  8
0
 62
     0
 10
131.87
 20
98.8466
 30
0.0
 11
117.869
 21
98.8466
 31
0.0
  0
LINE
  8
0
 62
     0
 10
117.869
 20
98.8466
 30
0.0
 11
117.869
 21
112.848
 31
0.0
  0
LINE
  8
0
 62
     0
 10
136.919
 20
112.848
 30
0.0
 11
150.92
 21
112.848
 31
0.0
  0
LINE
  8
0
 62
     0
 10
150.92
 20
112.848
 30
0.0
 11
150.92
 21
98.8466
 31
0.0
  0
LINE
  8
0
 62
     0
 10
150.92
 20
98.8466
 30
0.0
 11
136.919
 21
98.8466
 31
0.0
  0
LINE
  8
0
 62
     0
 10
136.919
 20
98.8466
 30
0.0
 11
136.919
 21
112.848
 31
0.0
  0
LINE
  8
0
 62
     0
 10
155.969
 20
112.848
 30
0.0
 11
169.97
 21
112.848
 31
0.0
  0
LINE
  8
0
 62
     0
 10
169.97
 20
112.848
 30
0.0
 11
169.97
 21
98.8466
 31
0.0
  0
LINE
  8
0
 62
     0
 10
169.97
 20
98.8466
 30
0.0
 11
155.969
 21
98.8466
 31
0.0
  0
LINE
  8
0
 62
     0
 10
155.969
 20
98.8466
 30
0.0
 11
155.969
 21
112.848
 31
0.0
  0
LINE
  8
0
 62
     0
 10
175.019
 20
112.848
 30
0.0
 11
189.02
 21
112.848
 31
0.0
  0
LINE
  8
0
 62
     0
 10
189.02
 20
112.848
 30
0.0
 11
189.02
 21
98.8466
 31
0.0
  0
LINE
  8
0
 62
     0
 10
189.02
 20
98.8466
 30
0.0
 11
175.019
 21
98.8466
 31
0.0
  0
LINE
  8
0
 62
     0
 10
175.019
 20
98.8466
 30
0.0
 11
175.019
 21
112.848
 31
0.0
  0
LINE
  8
0
 62
     0
 10
194.069
 20
112.848
 30
0.0
 11
208.07
 21
112.848
 31
0.0
  0
LINE
  8
0
 62
     0
 10
208.07
 20
112.848
 30
0.0
 11
208.07
 21
98.8466
 31
0.0
  0
LINE
  8
0
 62
     0
 10
208.07
 20
98.8466
 30
0.0
 11
194.069
 21
98.8466
 31
0.0
  0
LINE
  8
0
 62
     0
 10
194.069
 20
98.8466
 30
0.0
 11
194.069
 21
112.848
 31
0.0
  0
LINE
  8
0
 62
     0
 10
213.119
 20
112.848
 30
0.0
 11
227.12
 21
112.848
 31
0.0
  0
LINE
  8
0
 62
     0
 10
227.12
 20
112.848
 30
0.0
 11
227.12
 21
98.8466
 31
0.0
  0
LINE
  8
0
 62
     0
 10
227.12
 20
98.8466
 30
0.0
 11
213.119
 21
98.8466
 31
0.0
  0
LINE
  8
0
 62
     0
 10
213.119
 20
98.8466
 30
0.0
 11
213.119
 21
112.848
 31
0.0
  0
LINE
  8
0
 62
     0
 10
234.55
 20
112.848
 30
0.0
 11
248.55
 21
112.848
 31
0.0
  0
LINE
  8
0
 62
     0
 10
248.55
 20
112.848
 30
0.0
 11
248.55
 21
98.8466
 31
0.0
  0
LINE
  8
0
 62
     0
 10
248.55
 20
98.8466
 30
0.0
 11
234.55
 21
98.8466
 31
0.0
  0
LINE
  8
0
 62
     0
 10
234.55
 20
98.8466
 30
0.0
 11
234.55
 21
112.848
 31
0.0
  0
ENDSEC
  0
EOF
